<svg xmlns="http://www.w3.org/2000/svg" width="800" height="450" viewBox="0 0 800 450" fill="none">
  <rect width="800" height="450" fill="#0b0d10"/>
  <rect x="470" y="130" width="290" height="190" rx="10" fill="url(#cr)" opacity="0.25"/>
  <g>
    <rect x="500" y="160" width="120" height="10" rx="5" fill="#fff" opacity="0.85"/>
    <rect x="500" y="160" width="56" height="10" rx="5" fill="#fff"/>
    <rect x="500" y="190" width="230" height="8" rx="4" fill="#fff" opacity="0.35"/>
    <rect x="500" y="190" width="90" height="8" rx="4" fill="#fff" opacity="0.7"/>
    <rect x="500" y="214" width="210" height="8" rx="4" fill="#fff" opacity="0.35"/>
    <rect x="500" y="214" width="70" height="8" rx="4" fill="#fff" opacity="0.7"/>
    <rect x="500" y="238" width="225" height="8" rx="4" fill="#fff" opacity="0.35"/>
    <rect x="500" y="238" width="100" height="8" rx="4" fill="#fff" opacity="0.7"/>
  </g>
  <rect x="500" y="274" width="180" height="22" rx="6" fill="#60a5fa" opacity="0.25" stroke="#60a5fa" stroke-width="1"/>
  <text x="512" y="289" fill="#bfdbfe" font-family="system-ui" font-size="11" font-weight="600">AI summary</text>
  <text x="40" y="60" fill="#fff" font-family="system-ui" font-size="22" font-weight="600">ClearRead</text>
  <text x="40" y="90" fill="#9aa6b2" font-family="system-ui" font-size="13">Accessible AI article reader</text>
  <defs><linearGradient id="cr" x1="470" y1="130" x2="760" y2="320"><stop stop-color="#60a5fa"/><stop offset="1" stop-color="#0b0d10"/></linearGradient></defs>
</svg>
